{"glyphs":{"0":{"ha":785,"x_min":37,"x_max":748,"o":"m 380 769 l 342 728 l 342 319 l 380 278 l 406 278 l 444 319 l 444 728 l 406 769 l 380 769 m 596 1041 l 748 878 l 748 170 l 596 6 l 189 6 l 37 170 l 37 878 l 189 1041 l 596 1041 z "},"1":{"ha":380,"x_min":37,"x_max":342,"o":"m 37 1041 l 342 1041 l 342 6 l 37 6 l 37 1041 z "},"2":{"ha":785,"x_min":37,"x_max":748,"o":"m 595 1041 l 748 878 l 748 551 l 595 387 l 380 387 l 342 347 l 342 278 l 723 278 l 723 6 l 37 6 l 37 496 l 190 660 l 405 660 l 444 701 l 444 728 l 405 769 l 62 769 l 62 1041 l 595 1041 z "},"3":{"ha":786,"x_min":37,"x_max":749,"o":"m 596 1041 l 749 878 l 749 681 l 637 524 l 749 366 l 749 170 l 596 6 l 37 6 l 37 278 l 406 278 l 444 319 l 444 347 l 406 387 l 63 387 l 63 660 l 406 660 l 444 701 l 444 728 l 406 769 l 37 769 l 37 1041 l 596 1041 z "},"4":{"ha":800,"x_min":37,"x_max":762,"o":"m 366 524 l 437 524 l 445 772 l 366 524 m 428 251 l 37 251 l 37 406 l 262 1041 l 723 1041 l 724 524 l 762 524 l 762 251 l 724 251 l 724 6 l 419 6 l 428 251 z "},"5":{"ha":785,"x_min":37,"x_max":748,"o":"m 595 6 l 62 6 l 62 278 l 405 278 l 443 319 l 443 347 l 405 387 l 189 387 l 37 551 l 37 1041 l 722 1041 l 722 769 l 342 769 l 342 701 l 380 660 l 595 660 l 748 496 l 748 170 l 595 6 z "},"6":{"ha":785,"x_min":37,"x_max":748,"o":"m 380 278 l 406 278 l 444 319 l 444 347 l 406 387 l 380 387 l 342 347 l 342 319 l 380 278 m 723 1041 l 723 769 l 380 769 l 342 728 l 342 619 l 486 660 l 596 660 l 748 496 l 748 170 l 596 6 l 190 6 l 37 170 l 37 878 l 190 1041 l 723 1041 z "},"7":{"ha":803,"x_min":37,"x_max":766,"o":"m 151 6 l 444 769 l 37 769 l 37 1041 l 749 1041 l 766 817 l 456 6 l 151 6 z "},"8":{"ha":786,"x_min":37,"x_max":749,"o":"m 190 6 l 37 170 l 37 366 l 149 524 l 37 681 l 37 878 l 190 1041 l 596 1041 l 749 878 l 749 681 l 637 524 l 749 366 l 749 170 l 596 6 l 190 6 m 382 387 l 342 347 l 342 319 l 380 278 l 403 278 l 444 319 l 444 347 l 406 387 l 382 387 m 382 769 l 342 728 l 342 701 l 380 660 l 403 660 l 444 701 l 444 728 l 406 769 l 382 769 z "},"9":{"ha":786,"x_min":37,"x_max":749,"o":"m 406 769 l 380 769 l 342 728 l 342 701 l 380 660 l 406 660 l 444 701 l 444 728 l 406 769 m 62 6 l 62 278 l 406 278 l 444 319 l 444 429 l 300 387 l 190 387 l 37 551 l 37 878 l 190 1041 l 596 1041 l 749 878 l 749 170 l 596 6 l 62 6 z "}," ":{"ha":339,"x_min":0,"x_max":0,"o":""}," ":{"ha":339,"x_min":0,"x_max":0,"o":""},"!":{"ha":75,"x_min":0,"x_max":0,"o":""},"\"":{"ha":75,"x_min":0,"x_max":0,"o":""},"#":{"ha":75,"x_min":0,"x_max":0,"o":""},"$":{"ha":75,"x_min":0,"x_max":0,"o":""},"%":{"ha":75,"x_min":0,"x_max":0,"o":""},"&":{"ha":75,"x_min":0,"x_max":0,"o":""},"'":{"ha":75,"x_min":0,"x_max":0,"o":""},"(":{"ha":75,"x_min":0,"x_max":0,"o":""},")":{"ha":75,"x_min":0,"x_max":0,"o":""},"*":{"ha":75,"x_min":0,"x_max":0,"o":""},"+":{"ha":75,"x_min":0,"x_max":0,"o":""},",":{"ha":75,"x_min":0,"x_max":0,"o":""},"-":{"ha":709,"x_min":37,"x_max":671,"o":"m 37 650 l 671 650 l 671 406 l 37 406 l 37 650 z "},"­":{"ha":709,"x_min":37,"x_max":671,"o":"m 37 650 l 671 650 l 671 406 l 37 406 l 37 650 z "},".":{"ha":329,"x_min":37,"x_max":292,"o":"m 292 109 l 190 6 l 133 6 l 37 109 l 37 176 l 138 278 l 196 278 l 292 176 l 292 109 z "},"/":{"ha":75,"x_min":0,"x_max":0,"o":""},":":{"ha":75,"x_min":0,"x_max":0,"o":""},";":{"ha":75,"x_min":0,"x_max":0,"o":""},";":{"ha":75,"x_min":0,"x_max":0,"o":""},"<":{"ha":75,"x_min":0,"x_max":0,"o":""},"=":{"ha":75,"x_min":0,"x_max":0,"o":""},">":{"ha":75,"x_min":0,"x_max":0,"o":""},"?":{"ha":75,"x_min":0,"x_max":0,"o":""},"@":{"ha":75,"x_min":0,"x_max":0,"o":""},"A":{"ha":903,"x_min":37,"x_max":866,"o":"m 416 524 l 488 524 l 452 772 l 416 524 m 526 251 l 377 251 l 342 6 l 37 6 l 222 1041 l 682 1041 l 866 6 l 561 6 l 526 251 z "},"B":{"ha":785,"x_min":37,"x_max":748,"o":"m 342 769 l 342 660 l 406 660 l 444 701 l 444 728 l 406 769 l 342 769 m 342 278 l 406 278 l 444 319 l 444 347 l 406 387 l 342 387 l 342 278 m 596 1041 l 748 878 l 748 681 l 637 524 l 748 366 l 748 170 l 596 6 l 37 6 l 37 1041 l 596 1041 z "},"C":{"ha":760,"x_min":37,"x_max":723,"o":"m 189 1041 l 723 1041 l 723 769 l 380 769 l 342 728 l 342 319 l 380 278 l 723 278 l 723 6 l 189 6 l 37 170 l 37 878 l 189 1041 z "},"D":{"ha":786,"x_min":37,"x_max":749,"o":"m 342 769 l 342 278 l 406 278 l 444 319 l 444 728 l 406 769 l 342 769 m 596 1041 l 749 878 l 749 170 l 596 6 l 37 6 l 37 1041 l 596 1041 z "},"E":{"ha":734,"x_min":37,"x_max":697,"o":"m 37 1041 l 697 1041 l 697 769 l 342 769 l 342 687 l 697 687 l 697 415 l 342 415 l 342 278 l 697 278 l 697 6 l 37 6 l 37 1041 z "},"F":{"ha":735,"x_min":37,"x_max":698,"o":"m 37 1041 l 698 1041 l 698 769 l 342 769 l 342 687 l 698 687 l 698 415 l 342 415 l 342 6 l 37 6 l 37 1041 z "},"G":{"ha":786,"x_min":37,"x_max":749,"o":"m 190 1041 l 749 1041 l 749 769 l 380 769 l 342 728 l 342 319 l 380 278 l 444 278 l 444 415 l 393 415 l 393 687 l 749 687 l 749 6 l 190 6 l 37 170 l 37 878 l 190 1041 z "},"H":{"ha":838,"x_min":37,"x_max":800,"o":"m 37 6 l 37 1041 l 342 1041 l 342 665 l 495 665 l 495 1041 l 800 1041 l 800 6 l 495 6 l 495 392 l 342 392 l 342 6 l 37 6 z "},"I":{"ha":380,"x_min":37,"x_max":342,"o":"m 37 1041 l 342 1041 l 342 6 l 37 6 l 37 1041 z "},"J":{"ha":785,"x_min":37,"x_max":748,"o":"m 444 1041 l 748 1041 l 748 170 l 595 6 l 189 6 l 37 170 l 37 524 l 342 524 l 342 319 l 380 278 l 406 278 l 444 319 l 444 1041 z "},"K":{"ha":837,"x_min":37,"x_max":800,"o":"m 342 660 l 490 1041 l 800 1041 l 576 524 l 800 6 l 490 6 l 342 387 l 342 6 l 37 6 l 37 1041 l 342 1041 l 342 660 z "},"L":{"ha":735,"x_min":37,"x_max":698,"o":"m 37 1041 l 342 1041 l 342 278 l 698 278 l 698 6 l 37 6 l 37 1041 z "},"M":{"ha":1063,"x_min":37,"x_max":1026,"o":"m 343 1041 l 531 707 l 720 1041 l 1026 1041 l 1026 6 l 721 6 l 721 610 l 526 306 l 342 609 l 342 6 l 37 6 l 37 1041 l 343 1041 z "},"N":{"ha":973,"x_min":37,"x_max":936,"o":"m 631 6 l 342 524 l 342 6 l 37 6 l 37 1041 l 343 1041 l 630 524 l 630 1041 l 936 1041 l 936 6 l 631 6 z "},"O":{"ha":786,"x_min":37,"x_max":749,"o":"m 380 769 l 342 728 l 342 319 l 380 278 l 406 278 l 444 319 l 444 728 l 406 769 l 380 769 m 596 1041 l 749 878 l 749 170 l 596 6 l 190 6 l 37 170 l 37 878 l 190 1041 l 596 1041 z "},"P":{"ha":786,"x_min":37,"x_max":749,"o":"m 342 769 l 342 660 l 406 660 l 444 701 l 444 728 l 406 769 l 342 769 m 596 1041 l 749 878 l 749 551 l 596 387 l 342 387 l 342 6 l 37 6 l 37 1041 l 596 1041 z "},"Q":{"ha":786,"x_min":37,"x_max":749,"o":"m 342 728 l 342 319 l 380 278 l 406 278 l 444 319 l 444 728 l 406 769 l 380 769 l 342 728 m 749 878 l 749 170 l 596 6 l 583 6 l 618 -68 l 328 -68 l 313 6 l 190 6 l 37 170 l 37 878 l 190 1041 l 596 1041 l 749 878 z "},"R":{"ha":838,"x_min":37,"x_max":800,"o":"m 342 769 l 342 660 l 406 660 l 444 701 l 444 728 l 406 769 l 342 769 m 596 1041 l 749 878 l 749 681 l 637 524 l 749 366 l 749 153 l 800 6 l 529 6 l 444 153 l 444 347 l 406 387 l 342 387 l 342 6 l 37 6 l 37 1041 l 596 1041 z "},"S":{"ha":786,"x_min":37,"x_max":749,"o":"m 190 1041 l 724 1041 l 724 769 l 380 769 l 342 728 l 342 701 l 380 660 l 596 660 l 749 496 l 749 170 l 596 6 l 63 6 l 63 278 l 406 278 l 444 319 l 444 347 l 406 387 l 190 387 l 37 551 l 37 878 l 190 1041 z "},"T":{"ha":785,"x_min":37,"x_max":748,"o":"m 240 6 l 240 769 l 37 769 l 37 1041 l 748 1041 l 748 769 l 545 769 l 545 6 l 240 6 z "},"U":{"ha":785,"x_min":37,"x_max":748,"o":"m 37 1041 l 342 1041 l 342 319 l 380 278 l 406 278 l 444 319 l 444 1041 l 748 1041 l 748 170 l 595 6 l 189 6 l 37 170 l 37 1041 z "},"V":{"ha":903,"x_min":37,"x_max":866,"o":"m 561 1041 l 866 1041 l 682 5 l 222 5 l 37 1041 l 342 1041 l 452 275 l 561 1041 z "},"W":{"ha":1368,"x_min":37,"x_max":1331,"o":"m 573 1041 l 794 1041 l 935 419 l 1025 1041 l 1331 1041 l 1147 6 l 808 6 l 684 524 l 561 6 l 221 6 l 37 1041 l 342 1041 l 433 419 l 573 1041 z "},"X":{"ha":1050,"x_min":37,"x_max":1013,"o":"m 361 531 l 42 1041 l 378 1041 l 522 794 l 662 1041 l 1012 1041 l 692 520 l 1013 6 l 675 6 l 530 257 l 388 6 l 37 6 l 361 531 z "},"Y":{"ha":1044,"x_min":37,"x_max":1007,"o":"m 673 524 l 672 6 l 368 6 l 368 524 l 37 1041 l 387 1041 l 528 794 l 671 1041 l 1007 1041 l 673 524 z "},"Z":{"ha":793,"x_min":37,"x_max":755,"o":"m 331 769 l 47 769 l 47 1041 l 755 1041 l 450 278 l 755 278 l 755 6 l 37 6 l 331 769 z "},"[":{"ha":75,"x_min":0,"x_max":0,"o":""},"\\":{"ha":75,"x_min":0,"x_max":0,"o":""},"]":{"ha":75,"x_min":0,"x_max":0,"o":""},"^":{"ha":75,"x_min":0,"x_max":0,"o":""},"_":{"ha":75,"x_min":0,"x_max":0,"o":""},"`":{"ha":75,"x_min":0,"x_max":0,"o":""},"a":{"ha":903,"x_min":37,"x_max":866,"o":"m 416 524 l 488 524 l 452 772 l 416 524 m 526 251 l 377 251 l 342 6 l 37 6 l 222 1041 l 682 1041 l 866 6 l 561 6 l 526 251 z "},"b":{"ha":785,"x_min":37,"x_max":748,"o":"m 342 769 l 342 660 l 406 660 l 444 701 l 444 728 l 406 769 l 342 769 m 342 278 l 406 278 l 444 319 l 444 347 l 406 387 l 342 387 l 342 278 m 596 1041 l 748 878 l 748 681 l 637 524 l 748 366 l 748 170 l 596 6 l 37 6 l 37 1041 l 596 1041 z "},"c":{"ha":760,"x_min":37,"x_max":723,"o":"m 189 1041 l 723 1041 l 723 769 l 380 769 l 342 728 l 342 319 l 380 278 l 723 278 l 723 6 l 189 6 l 37 170 l 37 878 l 189 1041 z "},"d":{"ha":786,"x_min":37,"x_max":749,"o":"m 342 769 l 342 278 l 406 278 l 444 319 l 444 728 l 406 769 l 342 769 m 596 1041 l 749 878 l 749 170 l 596 6 l 37 6 l 37 1041 l 596 1041 z "},"e":{"ha":734,"x_min":37,"x_max":697,"o":"m 37 1041 l 697 1041 l 697 769 l 342 769 l 342 687 l 697 687 l 697 415 l 342 415 l 342 278 l 697 278 l 697 6 l 37 6 l 37 1041 z "},"f":{"ha":735,"x_min":37,"x_max":698,"o":"m 37 1041 l 698 1041 l 698 769 l 342 769 l 342 687 l 698 687 l 698 415 l 342 415 l 342 6 l 37 6 l 37 1041 z "},"g":{"ha":786,"x_min":37,"x_max":749,"o":"m 190 1041 l 749 1041 l 749 769 l 380 769 l 342 728 l 342 319 l 380 278 l 444 278 l 444 415 l 393 415 l 393 687 l 749 687 l 749 6 l 190 6 l 37 170 l 37 878 l 190 1041 z "},"h":{"ha":838,"x_min":37,"x_max":800,"o":"m 37 6 l 37 1041 l 342 1041 l 342 665 l 495 665 l 495 1041 l 800 1041 l 800 6 l 495 6 l 495 392 l 342 392 l 342 6 l 37 6 z "},"i":{"ha":380,"x_min":37,"x_max":342,"o":"m 37 1041 l 342 1041 l 342 6 l 37 6 l 37 1041 z "},"j":{"ha":785,"x_min":37,"x_max":748,"o":"m 444 1041 l 748 1041 l 748 170 l 595 6 l 189 6 l 37 170 l 37 524 l 342 524 l 342 319 l 380 278 l 406 278 l 444 319 l 444 1041 z "},"k":{"ha":837,"x_min":37,"x_max":800,"o":"m 342 660 l 490 1041 l 800 1041 l 576 524 l 800 6 l 490 6 l 342 387 l 342 6 l 37 6 l 37 1041 l 342 1041 l 342 660 z "},"l":{"ha":735,"x_min":37,"x_max":698,"o":"m 37 1041 l 342 1041 l 342 278 l 698 278 l 698 6 l 37 6 l 37 1041 z "},"m":{"ha":1063,"x_min":37,"x_max":1026,"o":"m 343 1041 l 531 707 l 720 1041 l 1026 1041 l 1026 6 l 721 6 l 721 610 l 526 306 l 342 609 l 342 6 l 37 6 l 37 1041 l 343 1041 z "},"n":{"ha":973,"x_min":37,"x_max":936,"o":"m 631 6 l 342 524 l 342 6 l 37 6 l 37 1041 l 343 1041 l 630 524 l 630 1041 l 936 1041 l 936 6 l 631 6 z "},"o":{"ha":786,"x_min":37,"x_max":749,"o":"m 380 769 l 342 728 l 342 319 l 380 278 l 406 278 l 444 319 l 444 728 l 406 769 l 380 769 m 596 1041 l 749 878 l 749 170 l 596 6 l 190 6 l 37 170 l 37 878 l 190 1041 l 596 1041 z "},"p":{"ha":786,"x_min":37,"x_max":749,"o":"m 342 769 l 342 660 l 406 660 l 444 701 l 444 728 l 406 769 l 342 769 m 596 1041 l 749 878 l 749 551 l 596 387 l 342 387 l 342 6 l 37 6 l 37 1041 l 596 1041 z "},"q":{"ha":786,"x_min":37,"x_max":749,"o":"m 342 728 l 342 319 l 380 278 l 406 278 l 444 319 l 444 728 l 406 769 l 380 769 l 342 728 m 749 878 l 749 170 l 596 6 l 583 6 l 618 -68 l 328 -68 l 313 6 l 190 6 l 37 170 l 37 878 l 190 1041 l 596 1041 l 749 878 z "},"r":{"ha":838,"x_min":37,"x_max":800,"o":"m 342 769 l 342 660 l 406 660 l 444 701 l 444 728 l 406 769 l 342 769 m 596 1041 l 749 878 l 749 681 l 637 524 l 749 366 l 749 153 l 800 6 l 529 6 l 444 153 l 444 347 l 406 387 l 342 387 l 342 6 l 37 6 l 37 1041 l 596 1041 z "},"s":{"ha":786,"x_min":37,"x_max":749,"o":"m 190 1041 l 724 1041 l 724 769 l 380 769 l 342 728 l 342 701 l 380 660 l 596 660 l 749 496 l 749 170 l 596 6 l 63 6 l 63 278 l 406 278 l 444 319 l 444 347 l 406 387 l 190 387 l 37 551 l 37 878 l 190 1041 z "},"t":{"ha":785,"x_min":37,"x_max":748,"o":"m 240 6 l 240 769 l 37 769 l 37 1041 l 748 1041 l 748 769 l 545 769 l 545 6 l 240 6 z "},"u":{"ha":785,"x_min":37,"x_max":748,"o":"m 37 1041 l 342 1041 l 342 319 l 380 278 l 406 278 l 444 319 l 444 1041 l 748 1041 l 748 170 l 595 6 l 189 6 l 37 170 l 37 1041 z "},"v":{"ha":903,"x_min":37,"x_max":866,"o":"m 561 1041 l 866 1041 l 682 5 l 222 5 l 37 1041 l 342 1041 l 452 275 l 561 1041 z "},"w":{"ha":1368,"x_min":37,"x_max":1331,"o":"m 573 1041 l 794 1041 l 935 419 l 1025 1041 l 1331 1041 l 1147 6 l 808 6 l 684 524 l 561 6 l 221 6 l 37 1041 l 342 1041 l 433 419 l 573 1041 z "},"x":{"ha":1050,"x_min":37,"x_max":1013,"o":"m 361 531 l 42 1041 l 378 1041 l 522 794 l 662 1041 l 1012 1041 l 692 520 l 1013 6 l 675 6 l 530 257 l 388 6 l 37 6 l 361 531 z "},"y":{"ha":1044,"x_min":37,"x_max":1007,"o":"m 673 524 l 672 6 l 368 6 l 368 524 l 37 1041 l 387 1041 l 528 794 l 671 1041 l 1007 1041 l 673 524 z "},"z":{"ha":793,"x_min":37,"x_max":755,"o":"m 331 769 l 47 769 l 47 1041 l 755 1041 l 450 278 l 755 278 l 755 6 l 37 6 l 331 769 z "},"{":{"ha":75,"x_min":0,"x_max":0,"o":""},"|":{"ha":75,"x_min":0,"x_max":0,"o":""},"}":{"ha":75,"x_min":0,"x_max":0,"o":""},"~":{"ha":75,"x_min":0,"x_max":0,"o":""}}}
